<svg width="24" height="28" viewBox="0 0 24 28" fill="none" xmlns="http://www.w3.org/2000/svg">
<path d="M23.2497 23.6169L21.2465 20.2779C20.3214 18.7367 19.8325 16.9715 19.8325 15.1749V12.25C19.8325 8.5575 17.3685 5.43435 13.9992 4.4275V2.33335C13.9992 1.0465 12.9527 0 11.6658 0C10.379 0 9.33247 1.0465 9.33247 2.33335V4.4275C5.96317 5.43435 3.49917 8.5575 3.49917 12.25V15.1749C3.49917 16.9715 3.01032 18.7355 2.08632 20.2767L0.0831704 23.6157C-0.0253296 23.7966 -0.0276811 24.0206 0.0761704 24.2037C0.180022 24.3869 0.372522 24.5001 0.582522 24.5001H22.7492C22.9592 24.5001 23.1528 24.3869 23.2567 24.2049C23.3605 24.0229 23.357 23.7965 23.2497 23.6169Z" fill="#919BAC"/>
<path d="M7.99194 25.6667C8.64994 27.0411 10.0429 28.0001 11.6657 28.0001C13.2885 28.0001 14.6816 27.0411 15.3396 25.6667H7.99194V25.6667Z" fill="#919BAC"/>
<path d="M22.4631 7C22.4631 9.48528 20.4484 11.5 17.9631 11.5C15.4779 11.5 13.4631 9.48528 13.4631 7C13.4631 4.51472 15.4779 2.5 17.9631 2.5C20.4484 2.5 22.4631 4.51472 22.4631 7Z" fill="#FE7977" stroke="#F6F5FA"/>
</svg>
