<svg width="43" height="22" viewBox="0 0 43 22" fill="none" xmlns="http://www.w3.org/2000/svg">
<path d="M0.00019455 17.3971V4.57751C0.00019455 2.05374 2.05336 0 4.57771 0L34.3912 0C36.9156 0 38.9688 2.05374 38.9688 4.57751V17.3971C38.9688 19.9214 36.915 21.9746 34.3912 21.9746L4.57771 21.9746C2.05336 21.9752 0.00019455 19.9214 0.00019455 17.3971ZM37.7968 4.57751C37.7968 2.69968 36.2691 1.17192 34.3912 1.17192L4.57771 1.17192C2.69987 1.17192 1.17211 2.69968 1.17211 4.57751V17.3971C1.17211 19.2749 2.69987 20.8027 4.57771 20.8027L34.3912 20.8027C36.2691 20.8027 37.7968 19.2749 37.7968 17.3971V4.57751Z" fill="#484D4D"/>
<path d="M38.1265 13.3504V8.62523C38.1265 8.07791 38.5741 7.63037 39.1214 7.63037H40.1163C41.279 7.63037 42.23 8.5814 42.23 9.74409V12.231C42.23 13.3936 41.279 14.3447 40.1163 14.3447H39.1214C38.5741 14.3452 38.1265 13.8971 38.1265 13.3504Z" fill="#484D4D"/>
<path d="M2 17.2896V4.71042C2 3.21329 2.88379 2 3.97435 2L26.0257 2C27.1162 2 28 3.21329 28 4.71042V17.2896C28 18.7867 27.1162 20 26.0257 20H3.97435C2.88424 20 2 18.7861 2 17.2896Z" fill="#38E053"/>
</svg>
