<svg width="43" height="22" viewBox="0 0 43 22" fill="none" xmlns="http://www.w3.org/2000/svg">
<path d="M5.34058e-05 17.3934V4.57655C5.34058e-05 2.05331 2.05279 0 4.57661 0L34.3839 0C36.9077 0 38.9604 2.05331 38.9604 4.57655V17.3934C38.9604 19.9173 36.9071 21.97 34.3839 21.97L4.57661 21.97C2.05279 21.9706 5.34058e-05 19.9173 5.34058e-05 17.3934ZM37.7888 4.57655C37.7888 2.69911 36.2613 1.17167 34.3839 1.17167L4.57661 1.17167C2.69917 1.17167 1.17173 2.69911 1.17173 4.57655V17.3934C1.17173 19.2709 2.69917 20.7983 4.57661 20.7983L34.3839 20.7983C36.2613 20.7983 37.7888 19.2709 37.7888 17.3934V4.57655Z" fill="#484D4D"/>
<path d="M38.1186 13.3472V8.62307C38.1186 8.07587 38.5661 7.62842 39.1133 7.62842H40.1079C41.2704 7.62842 42.2212 8.57925 42.2212 9.74169V12.228C42.2212 13.3905 41.2704 14.3413 40.1079 14.3413H39.1133C38.5661 14.3419 38.1186 13.8939 38.1186 13.3472Z" fill="#484D4D"/>
<path d="M30.3086 11.9293L18.2984 6.65625L19.5675 11.5384L10.389 9.29309L22.9851 15.1514L21.6179 10.1718L30.3086 11.9293Z" fill="#424244"/>
</svg>
