<svg width="31" height="31" viewBox="0 0 31 31" fill="none" xmlns="http://www.w3.org/2000/svg">
<path d="M10.7042 0H3.58486C1.60819 0 0 1.60819 0 3.58486V10.7042C0 12.6809 1.60819 14.2891 3.58486 14.2891H10.7042C12.6809 14.2891 14.2891 12.6809 14.2891 10.7042V3.58486C14.2891 1.60819 12.6809 0 10.7042 0ZM11.8672 10.7042C11.8672 11.3455 11.3455 11.8672 10.7042 11.8672H3.58486C2.94361 11.8672 2.42188 11.3455 2.42188 10.7042V3.58486C2.42188 2.94361 2.94361 2.42188 3.58486 2.42188H10.7042C11.3455 2.42188 11.8672 2.94361 11.8672 3.58486V10.7042Z" fill="#FF5A5F"/>
<path d="M27.3672 0H20.3438C18.3406 0 16.7109 1.62968 16.7109 3.63281V10.6562C16.7109 12.6594 18.3406 14.2891 20.3438 14.2891H27.3672C29.3703 14.2891 31 12.6594 31 10.6562V3.63281C31 1.62968 29.3703 0 27.3672 0ZM28.5781 10.6562C28.5781 11.324 28.0349 11.8672 27.3672 11.8672H20.3438C19.676 11.8672 19.1328 11.324 19.1328 10.6562V3.63281C19.1328 2.9651 19.676 2.42188 20.3438 2.42188H27.3672C28.0349 2.42188 28.5781 2.9651 28.5781 3.63281V10.6562Z" fill="#FF5A5F"/>
<path d="M10.7042 16.7109H3.58486C1.60819 16.7109 0 18.3191 0 20.2958V27.4151C0 29.3918 1.60819 31 3.58486 31H10.7042C12.6809 31 14.2891 29.3918 14.2891 27.4151V20.2958C14.2891 18.3191 12.6809 16.7109 10.7042 16.7109ZM11.8672 27.4151C11.8672 28.0564 11.3455 28.5781 10.7042 28.5781H3.58486C2.94361 28.5781 2.42188 28.0564 2.42188 27.4151V20.2958C2.42188 19.6545 2.94361 19.1328 3.58486 19.1328H10.7042C11.3455 19.1328 11.8672 19.6545 11.8672 20.2958V27.4151Z" fill="#FF5A5F"/>
<path d="M27.3672 16.7109H20.3438C18.3406 16.7109 16.7109 18.3406 16.7109 20.3438V27.3672C16.7109 29.3703 18.3406 31 20.3438 31H27.3672C29.3703 31 31 29.3703 31 27.3672V20.3438C31 18.3406 29.3703 16.7109 27.3672 16.7109ZM28.5781 27.3672C28.5781 28.0349 28.0349 28.5781 27.3672 28.5781H20.3438C19.676 28.5781 19.1328 28.0349 19.1328 27.3672V20.3438C19.1328 19.676 19.676 19.1328 20.3438 19.1328H27.3672C28.0349 19.1328 28.5781 19.676 28.5781 20.3438V27.3672Z" fill="#FF5A5F"/>
</svg>
