<svg width="47" height="32" viewBox="0 0 47 32" fill="none" xmlns="http://www.w3.org/2000/svg">
<path d="M23.6672 9.54541C20.1567 9.54541 17.3037 12.3984 17.3037 15.9089C17.3037 19.4195 20.1567 22.2725 23.6672 22.2725C27.1778 22.2725 30.0308 19.4195 30.0308 15.9089C30.0308 12.3984 27.1777 9.54541 23.6672 9.54541Z" fill="white"/>
<path d="M23.667 0C13.0611 0 4.00366 6.5968 0.333984 15.9088C4.00366 25.2208 13.0611 31.8177 23.667 31.8177C34.2834 31.8177 43.3303 25.2208 47 15.9088C43.3303 6.5968 34.2834 0 23.667 0ZM23.667 26.5147C17.8125 26.5147 13.0611 21.7632 13.0611 15.9087C13.0611 10.0543 17.8125 5.30291 23.667 5.30291C29.5214 5.30291 34.2729 10.0544 34.2729 15.9088C34.2729 21.7633 29.5214 26.5147 23.667 26.5147Z" fill="white"/>
</svg>
