<svg width="16" height="19" viewBox="0 0 16 19" fill="none" xmlns="http://www.w3.org/2000/svg">
<rect width="16" height="19" fill="url(#paint0_linear)"/>
<path d="M2.90907 0.76C2.90907 0.340264 2.58346 0 2.1818 0C1.78014 0 1.45453 0.340264 1.45453 0.76V18.24C1.45453 18.6597 1.78014 19 2.1818 19C2.58346 19 2.90907 18.6597 2.90907 18.24V0.76Z" fill="white"/>
<path d="M2.18182 9.87995C3.3868 9.87995 4.36364 8.85916 4.36364 7.59995C4.36364 6.34074 3.3868 5.31995 2.18182 5.31995C0.976833 5.31995 0 6.34074 0 7.59995C0 8.85916 0.976833 9.87995 2.18182 9.87995Z" fill="white"/>
<path d="M7.99999 16.72C9.20498 16.72 10.1818 15.6992 10.1818 14.44C10.1818 13.1808 9.20498 12.16 7.99999 12.16C6.79501 12.16 5.81818 13.1808 5.81818 14.44C5.81818 15.6992 6.79501 16.72 7.99999 16.72Z" fill="white"/>
<path d="M8.72725 0.76C8.72725 0.340264 8.40164 0 7.99998 0C7.59832 0 7.27271 0.340264 7.27271 0.76V18.24C7.27271 18.6597 7.59832 19 7.99998 19C8.40164 19 8.72725 18.6597 8.72725 18.24V0.76Z" fill="white"/>
<path d="M13.8182 7.60004C15.0232 7.60004 16 6.57925 16 5.32004C16 4.06083 15.0232 3.04004 13.8182 3.04004C12.6132 3.04004 11.6364 4.06083 11.6364 5.32004C11.6364 6.57925 12.6132 7.60004 13.8182 7.60004Z" fill="white"/>
<path d="M14.5454 0.76C14.5454 0.340264 14.2198 0 13.8182 0C13.4165 0 13.0909 0.340264 13.0909 0.76V18.24C13.0909 18.6597 13.4165 19 13.8182 19C14.2198 19 14.5454 18.6597 14.5454 18.24V0.76Z" fill="white"/>
<defs>
<linearGradient id="paint0_linear" x1="8" y1="0" x2="8.27514" y2="24.5601" gradientUnits="userSpaceOnUse">
<stop stop-color="#4B9B7A"/>
<stop offset="1" stop-color="#227553"/>
</linearGradient>
</defs>
</svg>
