<svg width="19" height="16" viewBox="0 0 19 16" fill="none" xmlns="http://www.w3.org/2000/svg">
<path d="M0.76 13.0909C0.340264 13.0909 0 13.4165 0 13.8181C0 14.2198 0.340264 14.5454 0.76 14.5454L18.24 14.5454C18.6597 14.5454 19 14.2198 19 13.8181C19 13.4165 18.6597 13.0909 18.24 13.0909L0.76 13.0909Z" fill="#868686"/>
<path d="M9.88001 13.8182C9.88001 12.6132 8.85922 11.6364 7.60001 11.6364C6.3408 11.6364 5.32001 12.6132 5.32001 13.8182C5.32001 15.0232 6.3408 16 7.60001 16C8.85922 16 9.88001 15.0232 9.88001 13.8182Z" fill="#868686"/>
<path d="M16.72 8.00007C16.72 6.79508 15.6992 5.81825 14.44 5.81825C13.1808 5.81825 12.16 6.79508 12.16 8.00007C12.16 9.20505 13.1808 10.1819 14.44 10.1819C15.6992 10.1819 16.72 9.20505 16.72 8.00007Z" fill="#868686"/>
<path d="M0.76 7.27275C0.340264 7.27275 0 7.59836 0 8.00002C0 8.40168 0.340264 8.72729 0.76 8.72729L18.24 8.72729C18.6597 8.72729 19 8.40168 19 8.00002C19 7.59836 18.6597 7.27275 18.24 7.27275L0.76 7.27275Z" fill="#868686"/>
<path d="M7.59998 2.18171C7.59998 0.976723 6.57919 -0.000109673 5.31998 -0.000109673C4.06077 -0.000109673 3.03998 0.976723 3.03998 2.18171C3.03998 3.38669 4.06077 4.36353 5.31998 4.36353C6.57919 4.36353 7.59998 3.38669 7.59998 2.18171Z" fill="#868686"/>
<path d="M0.76 1.45439C0.340264 1.45439 0 1.78 0 2.18166C0 2.58332 0.340264 2.90894 0.76 2.90894L18.24 2.90894C18.6597 2.90894 19 2.58332 19 2.18166C19 1.78 18.6597 1.45439 18.24 1.45439L0.76 1.45439Z" fill="#868686"/>
</svg>
