<svg width="13" height="23" viewBox="0 0 13 23" fill="none" xmlns="http://www.w3.org/2000/svg">
<path fill-rule="evenodd" clip-rule="evenodd" d="M8.90383 6.50168H2.61265C1.97365 6.50168 1.45565 7.01679 1.45565 7.65221V15.4902C1.45565 16.1256 1.97365 16.6407 2.61265 16.6407H8.90383C9.54282 16.6407 10.0608 16.1256 10.0608 15.4902V7.65221C10.0608 7.01679 9.54282 6.50168 8.90383 6.50168ZM2.61265 6.04102C1.81391 6.04102 0.923828 6.85793 0.923828 7.65221V15.4902C0.923828 16.2844 1.81391 17.0953 2.61265 17.0953H8.90383C9.70257 17.0953 10.5925 16.2844 10.5925 15.4902V11.5712V7.65221C10.5925 6.85793 9.70324 6.04102 8.90449 6.04102H2.61265Z" fill="#4B9B7A"/>
<path fill-rule="evenodd" clip-rule="evenodd" d="M4.34387 0.782715H7.10732C7.75175 0.815 8.09872 1.31298 8.12866 1.54252C8.06974 3.0304 8.81965 4.58702 9.20196 5.17645V5.44856H2.31421L2.47812 5.23506C2.86849 4.72658 3.0173 4.04217 3.17638 3.35382C3.33492 2.66781 3.39432 2.01491 3.40048 1.62623C3.56955 1.10785 4.11977 0.79826 4.34387 0.782715ZM4.34387 1.12883C4.23797 1.13863 3.94237 1.23994 3.80881 1.62623C3.80079 2.03298 3.73888 2.69322 3.57874 3.38618C3.43662 4.00113 3.21473 4.65271 2.8764 5.17645H8.68381C8.26976 4.45991 7.64186 3.01674 7.69387 1.61144C7.66887 1.45309 7.51637 1.15219 7.08635 1.12883H4.34387Z" fill="#4B9B7A"/>
<path fill-rule="evenodd" clip-rule="evenodd" d="M7.17249 22.1895H4.40903C3.76461 22.1572 3.41764 21.6592 3.38769 21.4297C3.44662 19.9418 2.69671 18.3851 2.31439 17.7957V17.5236H9.20215L9.03824 17.7371C8.64787 18.2456 8.49906 18.93 8.33998 19.6184C8.18144 20.3044 8.12204 20.9573 8.11588 21.3459C7.94681 21.8643 7.39659 22.1739 7.17249 22.1895ZM7.17249 21.8433C7.27839 21.8335 7.57399 21.7322 7.70755 21.3459C7.71557 20.9392 7.77747 20.2789 7.93762 19.586C8.07974 18.971 8.30162 18.3195 8.63995 17.7957H2.83254C3.2466 18.5123 3.87449 19.9554 3.82249 21.3607C3.84749 21.5191 3.99999 21.82 4.43001 21.8433H7.17249Z" fill="#4B9B7A"/>
<path fill-rule="evenodd" clip-rule="evenodd" d="M11.1516 9.61518H10.3499V11.2308H11.1516C11.3931 11.2308 11.5889 11.0024 11.5889 10.7206V10.1254C11.5889 9.84361 11.3931 9.61518 11.1516 9.61518ZM10.3499 9.18848V11.7095H11.1516C11.5541 11.7095 12.0017 11.1903 12.0017 10.7206V10.1254C12.0017 9.65576 11.5541 9.18848 11.1516 9.18848H10.3499Z" fill="#4B9B7A"/>
</svg>
