<svg width="14" height="25" viewBox="0 0 14 25" fill="none" xmlns="http://www.w3.org/2000/svg">
<path d="M3.0918 12.0973L3.11671 6.98089L3.11671 1.90437C3.11671 0.666372 3.79518 0.164087 5.03069 0.154123C6.3185 0.154123 7.60631 0.141666 8.89163 0.142912C10.0188 0.142912 10.8485 0.701242 10.8547 1.80846C10.8863 8.68095 10.9149 15.553 10.9406 22.4247C10.9406 23.568 10.1595 24.1983 9.01618 24.2058C7.72837 24.2145 6.4418 24.2158 5.15523 24.2183C3.86867 24.2207 3.11795 23.6403 3.11671 22.3674C3.11671 18.9415 3.0918 15.5223 3.0918 12.0973ZM3.85621 12.1608C3.85621 15.5858 3.87987 19.0113 3.87987 22.4371C3.87987 23.2865 4.20743 23.6129 5.04563 23.6141C6.31227 23.6141 7.57891 23.6141 8.84555 23.6041C9.90295 23.5979 10.1757 23.3264 10.172 22.2702C10.1479 15.4816 10.1222 8.69299 10.0948 1.90437C10.0948 1.02258 9.76844 0.702492 8.89163 0.702492C7.64617 0.702492 6.4007 0.70664 5.15523 0.714943C4.14142 0.714943 3.85496 1.00514 3.85496 2.00899L3.85621 12.1608Z" fill="#4B9B7A"/>
<path d="M12.925 2.68416L12.925 11.6414V20.6623C13.2712 20.5552 13.271 20.5541 13.5949 20.4532L12.5798 22.8906L11.5498 20.452C11.8624 20.5529 11.9147 20.5614 12.2248 20.6623V11.702L12.2248 2.68416H12.925Z" fill="#4B9B7A"/>
<path d="M1.4788 22.8905L1.4788 13.9333L1.4788 4.91242C1.13256 5.01953 1.13277 5.02058 0.808949 5.12146L1.824 2.68408L2.854 5.12271C2.54139 5.02182 2.48909 5.0133 2.17896 4.91242L2.17896 13.8727L2.17896 22.8905H1.4788Z" fill="#4B9B7A"/>
<path d="M6.72705 20.3867V19.8885H9.34253V20.3867H6.72705Z" fill="#4B9B7A"/>
<path d="M6.72705 16.4014V15.9032H9.34253V16.4014H6.72705Z" fill="#4B9B7A"/>
<path d="M6.72705 12.416V11.9178H9.34253V12.416H6.72705Z" fill="#4B9B7A"/>
<path d="M6.72705 8.43066V7.93248H9.34253V8.43066H6.72705Z" fill="#4B9B7A"/>
<path d="M6.72705 4.44482V3.94664H9.34253V4.44482H6.72705Z" fill="#4B9B7A"/>
<path d="M7.72266 19.2661V18.8925H9.34176V19.2661H7.72266Z" fill="#4B9B7A"/>
<path d="M7.72266 18.2695V17.8959H9.34176V18.2695H7.72266Z" fill="#4B9B7A"/>
<path d="M7.72266 17.2734V16.8998H9.34176V17.2734H7.72266Z" fill="#4B9B7A"/>
<path d="M7.72266 15.4053V15.0316H9.34176V15.4053H7.72266Z" fill="#4B9B7A"/>
<path d="M7.72266 14.4092V14.0355H9.34176V14.4092H7.72266Z" fill="#4B9B7A"/>
<path d="M7.72266 13.4126V13.039H9.34176V13.4126H7.72266Z" fill="#4B9B7A"/>
<path d="M7.72266 11.2954V10.9218H9.34176V11.2954H7.72266Z" fill="#4B9B7A"/>
<path d="M7.72266 7.43408V7.06044H9.34176V7.43408H7.72266Z" fill="#4B9B7A"/>
<path d="M7.72266 10.4233V10.0497H9.34176V10.4233H7.72266Z" fill="#4B9B7A"/>
<path d="M7.72266 6.5625V6.18886H9.34176V6.5625H7.72266Z" fill="#4B9B7A"/>
<path d="M7.72266 9.42676V9.05312H9.34176V9.42676H7.72266Z" fill="#4B9B7A"/>
<path d="M7.72266 5.56592V5.19228H9.34176V5.56592H7.72266Z" fill="#4B9B7A"/>
</svg>
