<svg width="46" height="40" viewBox="0 0 46 40" fill="none" xmlns="http://www.w3.org/2000/svg">
<path d="M22.7138 8.25955C28.4955 8.25955 33.0382 12.8023 33.0382 18.584C33.0382 19.8229 32.8317 21.2683 32.2123 22.3008L38.2004 28.2889C41.2978 25.6046 43.7756 22.3008 45.2211 18.5839C41.7107 9.4984 32.8317 3.09725 22.5073 3.09725C19.6164 3.09725 16.9321 3.71672 14.2477 4.54267L18.7905 9.08543C20.0294 8.46604 21.4748 8.25955 22.7138 8.25955ZM2.06489 2.68435L6.81413 7.4336L7.64009 8.25955C4.12978 10.9439 1.44542 14.4542 0 18.584C3.51031 27.6695 12.3893 34.0707 22.7138 34.0707C25.8111 34.0707 28.9084 33.4512 31.7993 32.4187L32.6252 33.2447L38.6133 39.2329L41.2977 36.5485L4.74924 0L2.06489 2.68435ZM13.4218 14.0412L16.5191 17.1386C16.5191 17.758 16.5191 18.171 16.5191 18.584C16.5191 22.0943 19.2035 24.7787 22.7138 24.7787C23.1267 24.7787 23.5397 24.7787 24.1592 24.5722L27.2565 27.6695C25.8111 28.4955 24.3658 28.9084 22.7138 28.9084C16.9321 28.9084 12.3893 24.3657 12.3893 18.584C12.3893 16.9321 12.8023 15.4867 13.4218 14.0412ZM22.3008 12.3893L28.7019 18.7905C28.7019 18.584 28.7019 18.584 28.7019 18.3775C28.7019 14.8672 26.0176 12.1828 22.5073 12.1828C22.5073 12.3893 22.5073 12.3893 22.3008 12.3893Z" fill="white"/>
</svg>
