<svg width="38" height="106" viewBox="0 0 38 106" fill="none" xmlns="http://www.w3.org/2000/svg">
<path d="M18.9861 19.7314C24.2809 19.7314 28.5732 15.4391 28.5732 10.1443C28.5732 4.84943 24.2809 0.557129 18.9861 0.557129C13.6912 0.557129 9.39893 4.84943 9.39893 10.1443C9.39893 15.4391 13.6912 19.7314 18.9861 19.7314Z" fill="#FF2C2C"/>
<path d="M34.0952 23.5917H3.77431C3.3357 23.5917 2.90142 23.6785 2.49651 23.8471C2.09161 24.0157 1.72409 24.2628 1.41513 24.5742C1.10618 24.8855 0.861901 25.2549 0.696389 25.6611C0.530877 26.0673 0.447398 26.5022 0.450771 26.9408V58.9746C0.410231 59.4373 0.466369 59.9034 0.615619 60.3432C0.764869 60.783 1.00397 61.187 1.31772 61.5294C1.63148 61.8719 2.01304 62.1453 2.43815 62.3324C2.86327 62.5194 3.32264 62.6161 3.78709 62.6161C4.25155 62.6161 4.71092 62.5194 5.13604 62.3324C5.56115 62.1453 5.94271 61.8719 6.25647 61.5294C6.57022 61.187 6.80932 60.783 6.95857 60.3432C7.10782 59.9034 7.16396 59.4373 7.12342 58.9746V31.5938H8.73406V101.132C8.8172 102.204 9.30172 103.206 10.0908 103.936C10.88 104.666 11.9156 105.072 12.9907 105.072C14.0659 105.072 15.1015 104.666 15.8906 103.936C16.6798 103.206 17.1643 102.204 17.2474 101.132V67.1045H20.6988V101.132C20.6988 102.265 21.1486 103.351 21.9493 104.151C22.75 104.952 23.8359 105.402 24.9683 105.402C26.1006 105.402 27.1866 104.952 27.9872 104.151C28.7879 103.351 29.2377 102.265 29.2377 101.132V31.5938H30.8228V58.9746C30.8228 59.8629 31.1757 60.7147 31.8037 61.3428C32.4318 61.9709 33.2837 62.3237 34.1719 62.3237C35.0602 62.3237 35.912 61.9709 36.5401 61.3428C37.1682 60.7147 37.521 59.8629 37.521 58.9746V26.9408C37.5211 26.4945 37.432 26.0526 37.259 25.6412C37.0859 25.2298 36.8323 24.8571 36.5131 24.5451C36.194 24.2331 35.8157 23.988 35.4004 23.8243C34.9852 23.6606 34.5414 23.5815 34.0952 23.5917Z" fill="#FF2C2C"/>
</svg>
