<svg width="33" height="33" viewBox="0 0 33 33" fill="none" xmlns="http://www.w3.org/2000/svg">
<path d="M20.0046 17.3372C19.2671 17.3372 18.671 17.9348 18.671 18.6708V24.0055C18.671 24.7403 18.0735 25.3391 17.3372 25.3391H13.3363V5.33448C13.3363 4.19554 12.6108 3.17798 11.52 2.79923L11.1251 2.66712H17.3372C18.0735 2.66712 18.671 3.26589 18.671 4.00092V8.00184C18.671 8.73785 19.2671 9.3354 20.0046 9.3354C20.7421 9.3354 21.3382 8.73785 21.3382 8.00184V4.00092C21.3382 1.79509 19.5431 0 17.3372 0H3.00069C2.9499 0 2.90741 0.0227103 2.85808 0.0293036C2.79385 0.0239313 2.73256 0 2.66736 0C1.19632 0 0 1.19608 0 2.66712V26.6726C0 27.8116 0.725509 28.8291 1.81634 29.2079L9.84235 31.8833C10.1144 31.9673 10.385 32.0074 10.6692 32.0074C12.1402 32.0074 13.3363 30.811 13.3363 29.34V28.0064H17.3372C19.5431 28.0064 21.3382 26.2113 21.3382 24.0055V18.6708C21.3382 17.9348 20.7421 17.3372 20.0046 17.3372V17.3372Z" fill="#3D8E6C"/>
<path d="M31.6168 12.3936L26.2821 7.05909C25.9009 6.67765 25.3273 6.56288 24.8286 6.76947C24.3312 6.9763 24.0057 7.46299 24.0057 8.00193V12.0029H18.6712C17.935 12.0029 17.3374 12.6002 17.3374 13.3364C17.3374 14.0727 17.935 14.67 18.6712 14.67H24.0057V18.6709C24.0057 19.2098 24.3312 19.6965 24.8286 19.9033C25.3273 20.1099 25.9009 19.9952 26.2821 19.614L31.6168 14.2793C32.1382 13.7579 32.1382 12.9149 31.6168 12.3936V12.3936Z" fill="#3D8E6C"/>
</svg>
