<svg width="38" height="106" viewBox="0 0 38 106" fill="none" xmlns="http://www.w3.org/2000/svg">
<path d="M18.5481 19.7314C23.8429 19.7314 28.1352 15.4391 28.1352 10.1443C28.1352 4.84943 23.8429 0.557129 18.5481 0.557129C13.2532 0.557129 8.96094 4.84943 8.96094 10.1443C8.96094 15.4391 13.2532 19.7314 18.5481 19.7314Z" fill="url(#paint0_linear)"/>
<path d="M33.6572 23.5917H3.33632C2.89771 23.5917 2.46343 23.6785 2.05852 23.8471C1.65362 24.0157 1.2861 24.2628 0.977143 24.5742C0.668188 24.8855 0.423913 25.2549 0.258401 25.6611C0.0928885 26.0673 0.00940924 26.5022 0.0127832 26.9408V58.9746C-0.0277575 59.4373 0.0283802 59.9034 0.17763 60.3432C0.32688 60.783 0.565978 61.187 0.879735 61.5294C1.19349 61.8719 1.57505 62.1453 2.00016 62.3324C2.42528 62.5194 2.88465 62.6161 3.34911 62.6161C3.81356 62.6161 4.27294 62.5194 4.69805 62.3324C5.12316 62.1453 5.50472 61.8719 5.81848 61.5294C6.13224 61.187 6.37133 60.783 6.52058 60.3432C6.66983 59.9034 6.72597 59.4373 6.68543 58.9746V31.5938H8.29607V101.132C8.37921 102.204 8.86374 103.206 9.65285 103.936C10.442 104.666 11.4776 105.072 12.5528 105.072C13.6279 105.072 14.6635 104.666 15.4527 103.936C16.2418 103.206 16.7263 102.204 16.8094 101.132V67.1045H20.2608V101.132C20.2608 102.265 20.7106 103.351 21.5113 104.151C22.312 104.952 23.3979 105.402 24.5303 105.402C25.6626 105.402 26.7486 104.952 27.5492 104.151C28.3499 103.351 28.7997 102.265 28.7997 101.132V31.5938H30.3848V58.9746C30.3848 59.8629 30.7377 60.7147 31.3658 61.3428C31.9938 61.9709 32.8457 62.3237 33.7339 62.3237C34.6222 62.3237 35.474 61.9709 36.1021 61.3428C36.7302 60.7147 37.083 59.8629 37.083 58.9746V26.9408C37.0832 26.4945 36.994 26.0526 36.821 25.6412C36.6479 25.2298 36.3943 24.8571 36.0751 24.5451C35.756 24.2331 35.3777 23.988 34.9624 23.8243C34.5472 23.6606 34.1035 23.5815 33.6572 23.5917Z" fill="#0B9775"/>
<defs>
<linearGradient id="paint0_linear" x1="789.354" y1="1012.38" x2="848.027" y2="1786.45" gradientUnits="userSpaceOnUse">
<stop stop-color="#0B9775"/>
<stop offset="1" stop-color="#F37335"/>
</linearGradient>
</defs>
</svg>
