<svg width="31" height="31" viewBox="0 0 31 31" fill="none" xmlns="http://www.w3.org/2000/svg">
<path d="M28.9517 9.79581C28.2883 9.13197 27.2338 9.09026 26.5207 9.67133C26.4175 9.75536 26.4974 9.68132 24.9272 11.2515L29.003 15.3273L30.4678 13.8808C31.176 13.1726 31.176 12.0202 30.4678 11.312L28.9517 9.79581Z" fill="#3D8E6C"/>
<path d="M16.5692 19.6867L14.1716 24.8243C14.0102 25.1704 14.0824 25.5805 14.3524 25.8506C14.6225 26.1207 15.0327 26.1928 15.3787 26.0314L20.5164 23.6338C20.7196 23.5389 20.1043 24.1148 27.7107 16.6034L23.6429 12.5356C16.1013 20.0773 16.6659 19.4794 16.5692 19.6867Z" fill="#3D8E6C"/>
<path d="M22.0466 24.7498C21.8241 24.9694 21.5678 25.1477 21.2846 25.2799L16.1469 27.6775C15.1367 28.149 13.9024 27.9694 13.0683 27.1351C12.2611 26.328 12.0431 25.0907 12.5258 24.0562L14.9234 18.9185C15.058 18.63 15.2405 18.3695 15.4657 18.1443L23.1895 10.4205V2.72461C23.1895 1.22226 21.9672 0 20.4648 0H2.72461C1.22226 0 0 1.22226 0 2.72461V28.2754C0 29.7777 1.22226 31 2.72461 31H20.4648C21.9672 31 23.1895 29.7777 23.1895 28.2754V23.6211L22.0466 24.7498ZM4.84381 5.87305H18.4063C18.9079 5.87305 19.3145 6.27968 19.3145 6.78125C19.3145 7.28282 18.9079 7.68945 18.4063 7.68945H4.84381C4.34224 7.68945 3.93561 7.28282 3.93561 6.78125C3.93561 6.27968 4.34224 5.87305 4.84381 5.87305ZM4.84381 10.7168H15.5001C16.0016 10.7168 16.4083 11.1234 16.4083 11.625C16.4083 12.1266 16.0016 12.5332 15.5001 12.5332H4.84381C4.34224 12.5332 3.93561 12.1266 3.93561 11.625C3.93561 11.1234 4.34224 10.7168 4.84381 10.7168ZM3.93561 16.4688C3.93561 15.9672 4.34224 15.5605 4.84381 15.5605H12.5938C13.0954 15.5605 13.502 15.9672 13.502 16.4688C13.502 16.9703 13.0954 17.377 12.5938 17.377H4.84381C4.34224 17.377 3.93561 16.9703 3.93561 16.4688Z" fill="#3D8E6C"/>
</svg>
