<svg width="27" height="27" viewBox="0 0 27 27" fill="none" xmlns="http://www.w3.org/2000/svg">
<path d="M18.2582 5.29516C18.1164 5.43218 17.5337 5.99499 17.4528 6.07314C13.7428 3.69917 8.68655 4.3481 5.72952 7.91062C2.56285 11.7257 3.08728 17.3759 6.90273 20.5429C10.7179 23.7096 16.368 23.1851 19.535 19.3697C21.1988 17.3652 21.8492 14.8433 21.5209 12.4292C21.4626 11.9998 21.0671 11.699 20.6376 11.7574C20.2082 11.8157 19.9074 12.2113 19.9658 12.6407C20.2353 14.6231 19.7069 16.7052 18.3273 18.3673C15.7208 21.5076 11.0454 21.9418 7.90511 19.3352C4.76483 16.7287 4.3306 12.0533 6.93716 8.913C9.26005 6.11447 13.226 5.46515 16.2843 7.20184C16.1263 7.35437 16.2821 7.20393 15.4414 8.01594C15.2755 8.17615 15.3461 8.45587 15.5681 8.51821L19.304 9.56736C19.5239 9.62913 19.7289 9.4311 19.6748 9.20913L18.7558 5.43917C18.7012 5.21519 18.4241 5.13498 18.2582 5.29516V5.29516Z" fill="#00A167"/>
<path d="M18.2583 5.29508C18.1165 5.43207 17.5338 5.99491 17.4529 6.07306C13.7429 3.69907 8.68661 4.34805 5.72961 7.91055C5.61208 8.05214 5.50029 8.19654 5.3929 8.34293C8.38752 5.14639 13.1898 4.63878 16.7516 6.91794C16.8325 6.83977 17.4152 6.27696 17.557 6.13997C17.7229 5.97976 18 6.06 18.0546 6.28403L18.822 9.43195L19.304 9.56734C19.524 9.6291 19.729 9.43105 19.6749 9.2091L18.7559 5.43918C18.7013 5.21512 18.4242 5.1349 18.2583 5.29508V5.29508Z" fill="#028C5A"/>
</svg>
