<svg width="20" height="20" viewBox="0 0 20 20" fill="none" xmlns="http://www.w3.org/2000/svg">
<path d="M18.7717 17.6521L13.3675 12.2479C14.4143 10.9549 15.0446 9.31183 15.0446 7.52232C15.0446 3.37476 11.6699 0 7.52229 0C3.37472 0 0 3.37472 0 7.52229C0 11.6699 3.37476 15.0446 7.52233 15.0446C9.31183 15.0446 10.9549 14.4143 12.2479 13.3675L17.6521 18.7717C17.8065 18.9261 18.0092 19.0037 18.2119 19.0037C18.4147 19.0037 18.6174 18.9261 18.7718 18.7717C19.0813 18.4621 19.0813 17.9617 18.7717 17.6521ZM7.52233 13.461C4.24734 13.461 1.58366 10.7973 1.58366 7.52229C1.58366 4.2473 4.24734 1.58362 7.52233 1.58362C10.7973 1.58362 13.461 4.2473 13.461 7.52229C13.461 10.7973 10.7973 13.461 7.52233 13.461Z" fill="white"/>
</svg>
