<svg width="28" height="29" viewBox="0 0 28 29" fill="none" xmlns="http://www.w3.org/2000/svg">
<path d="M27.5148 17.5275L24.8719 15.4608C24.9054 15.1421 24.9342 14.7696 24.9342 14.3754C24.9342 13.9812 24.9066 13.6087 24.8719 13.29L27.5172 11.2222C28.0084 10.834 28.1426 10.1451 27.8299 9.57126L25.0815 4.81615C24.788 4.27945 24.1447 4.00388 23.4918 4.24468L20.3732 5.49662C19.7754 5.06533 19.1488 4.70114 18.5007 4.41001L18.0262 1.10222C17.9484 0.474427 17.402 0 16.7563 0H11.2453C10.5996 0 10.0545 0.474427 9.97778 1.09262L9.50217 4.41243C8.87437 4.69519 8.25742 5.0546 7.63322 5.49904L4.50631 4.2435C3.92041 4.01707 3.21955 4.27102 2.92843 4.80537L0.176547 9.56643C-0.148105 10.1152 -0.0139424 10.828 0.488058 11.2257L3.13093 13.2924C3.08898 13.6961 3.06865 14.0471 3.06865 14.3766C3.06865 14.7061 3.08904 15.0571 3.13093 15.4621L0.485644 17.5299C-0.00557474 17.9192 -0.138558 18.6081 0.174132 19.1808L2.92247 23.9358C3.21601 24.4713 3.85336 24.7493 4.51226 24.5073L7.6308 23.2553C8.22743 23.6855 8.85399 24.0496 9.50217 24.342L9.9766 27.6486C10.0544 28.2787 10.5996 28.7531 11.2465 28.7531H16.7575C17.4033 28.7531 17.9496 28.2787 18.0262 27.6605L18.5019 24.342C19.1296 24.058 19.7454 23.6998 20.3708 23.2541L23.4977 24.5096C23.6487 24.5683 23.8056 24.5983 23.9674 24.5983C24.4322 24.5983 24.8599 24.3443 25.0755 23.949L27.8358 19.1687C28.1426 18.6081 28.0084 17.9192 27.5148 17.5275ZM14.0008 19.1687C11.3579 19.1687 9.20863 17.0194 9.20863 14.3766C9.20863 11.7337 11.3579 9.5844 14.0008 9.5844C16.6437 9.5844 18.793 11.7337 18.793 14.3766C18.793 17.0194 16.6437 19.1687 14.0008 19.1687Z" fill="#3D8E6C"/>
</svg>
