<svg width="24" height="24" viewBox="0 0 24 24" fill="none" xmlns="http://www.w3.org/2000/svg">
<path d="M23.4939 14.8939L20.1176 12.2411C19.8996 12.0704 19.6025 12.0385 19.3546 12.1601C19.1057 12.2807 18.9475 12.5334 18.9475 12.8103V14.5852C16.2147 15.0463 14.1243 17.4232 14.1243 20.2863V22.6979C14.1243 23.2304 14.5564 23.6625 15.0889 23.6625C15.6214 23.6625 16.0536 23.2304 16.0536 22.6979V20.2863C16.0536 18.4939 17.2883 16.9958 18.9475 16.5647V18.1158C18.9475 18.3927 19.1057 18.6454 19.3546 18.766C19.4549 18.8152 19.5629 18.8393 19.671 18.8393C19.8301 18.8393 19.9883 18.7872 20.1176 18.6849L23.4939 16.0322C23.6694 15.8952 23.7707 15.6849 23.7707 15.463C23.7707 15.2412 23.6694 15.0309 23.4939 14.8939Z" fill="#4B9B7A"/>
<path d="M17.9828 0.51123H3.51308C1.92141 0.51123 0.619141 1.8135 0.619141 3.40517V15.9456C0.619141 17.5372 1.92141 18.8395 3.51308 18.8395H12.3396C12.465 18.1642 12.6772 17.5179 12.9762 16.9102H3.51308C2.98252 16.9102 2.54843 16.4761 2.54843 15.9456V5.33446H18.9474V10.2638C19.5841 10.0805 20.2786 10.148 20.8767 10.4471V3.40517C20.8767 1.8135 19.5744 0.51123 17.9828 0.51123V0.51123Z" fill="#4B9B7A"/>
</svg>
