<svg width="41" height="31" viewBox="0 0 41 31" fill="none" xmlns="http://www.w3.org/2000/svg">
<path fill-rule="evenodd" clip-rule="evenodd" d="M7.04563 7.27533C8.7253 7.27533 10.0937 5.90696 10.0937 4.22731C10.0937 2.54763 8.72527 1.17922 7.04563 1.17922C5.36599 1.17922 3.99759 2.54763 3.99759 4.22731C3.99759 5.9069 5.36598 7.27533 7.04563 7.27533ZM11.2729 4.22731C11.2729 6.55823 9.37657 8.45455 7.04563 8.45455C4.71469 8.45455 2.81836 6.55815 2.81836 4.22731C2.81836 1.8964 4.71469 0 7.04563 0C9.37657 0 11.2729 1.8964 11.2729 4.22731Z" fill="#C0C0C0"/>
<path fill-rule="evenodd" clip-rule="evenodd" d="M12.2268 7.04541L12.6552 7.3273C13.1634 7.66162 14.0909 8.64784 14.0909 10.1271V17.4666C14.0909 18.0744 13.911 18.9731 13.354 19.7366C12.7754 20.5296 11.8164 21.1363 10.3725 21.1363H3.32702C2.75905 21.1363 1.93509 20.9495 1.24153 20.3863C0.523938 19.8035 0 18.861 0 17.4666V10.1271C0 9.75167 0.0662813 9.17752 0.272706 8.63804C0.474694 8.11015 0.860124 7.49512 1.5757 7.25972L1.96096 7.13298L2.21704 7.44403C3.00735 8.40398 4.44191 9.54025 6.14944 9.86735C7.80221 10.184 9.81645 9.76398 11.8877 7.42786L12.2268 7.04541ZM1.37123 9.04743C1.22539 9.4286 1.17424 9.85879 1.17424 10.1271V17.4666C1.17424 18.5444 1.5636 19.147 1.98764 19.4914C2.4357 19.8553 2.98169 19.9775 3.32702 19.9775H10.3725C11.4336 19.9775 12.0402 19.5541 12.4011 19.0595C12.7835 18.5353 12.9167 17.8889 12.9167 17.4666V10.1271C12.9167 9.46637 12.6341 8.95219 12.3641 8.62886C10.1762 10.8673 7.91337 11.3858 5.92569 11.005C4.10663 10.6565 2.59971 9.57107 1.64907 8.56363C1.54493 8.67916 1.45087 8.83931 1.37123 9.04743Z" fill="#C0C0C0"/>
<path fill-rule="evenodd" clip-rule="evenodd" d="M38.9992 7.04541L39.4277 7.3273C39.9358 7.66162 40.8634 8.64784 40.8634 10.1271V17.4666C40.8634 18.0744 40.6834 18.9731 40.1265 19.7366C39.5479 20.5296 38.5888 21.1363 37.1449 21.1363H30.0995C29.5315 21.1363 28.7076 20.9495 28.014 20.3863C27.2964 19.8035 26.7725 18.861 26.7725 17.4666V10.1271C26.7725 9.75167 26.8387 9.17752 27.0452 8.63804C27.2472 8.11015 27.6326 7.49512 28.3482 7.25972L28.7334 7.13298L28.9895 7.44403C29.7798 8.40398 31.2144 9.54025 32.9219 9.86735C34.5747 10.184 36.5889 9.76398 38.6602 7.42786L38.9992 7.04541ZM28.1437 9.04743C27.9978 9.4286 27.9467 9.85879 27.9467 10.1271V17.4666C27.9467 18.5444 28.3361 19.147 28.7601 19.4914C29.2082 19.8553 29.7542 19.9775 30.0995 19.9775H37.1449C38.2061 19.9775 38.8127 19.5541 39.1735 19.0595C39.5559 18.5353 39.6891 17.8889 39.6891 17.4666V10.1271C39.6891 9.46637 39.4065 8.95219 39.1365 8.62886C36.9487 10.8673 34.6858 11.3858 32.6981 11.005C30.8791 10.6565 29.3722 9.57107 28.4215 8.56363C28.3174 8.67916 28.2233 8.83931 28.1437 9.04743Z" fill="#C0C0C0"/>
<path fill-rule="evenodd" clip-rule="evenodd" d="M2.13624 22.5454H11.9999L10.7549 29.4155L10.7428 29.4529C10.7376 29.4693 10.7305 29.4949 10.7214 29.5279C10.6763 29.6922 10.5815 30.0371 10.4114 30.3065C10.2958 30.4896 10.1329 30.6701 9.90215 30.802C9.6712 30.934 9.40248 31 9.09998 31H4.64281C4.36794 31 3.96803 30.9194 3.62084 30.6607C3.24523 30.3809 2.97137 29.9196 2.97137 29.2706C2.97137 28.8562 2.85429 27.7792 2.69759 26.5502C2.54348 25.3416 2.35837 24.0392 2.23499 23.2095L2.13624 22.5454ZM3.43352 23.6983C3.54686 24.4838 3.6836 25.4685 3.80231 26.3995C3.95513 27.598 4.08566 28.7627 4.08566 29.2706C4.08566 29.5439 4.18324 29.6591 4.27192 29.7251C4.38901 29.8123 4.54625 29.8471 4.64281 29.8471H9.09998C9.24319 29.8471 9.32114 29.817 9.36335 29.7928C9.40577 29.7686 9.44253 29.7329 9.47856 29.6759C9.51724 29.6146 9.55115 29.5348 9.58473 29.4306C9.60135 29.379 9.61625 29.3269 9.63256 29.269C9.63382 29.2646 9.6351 29.26 9.6364 29.2554C9.64735 29.2165 9.65988 29.172 9.6732 29.1283L10.6572 23.6983H3.43352Z" fill="#C0C0C0"/>
<path fill-rule="evenodd" clip-rule="evenodd" d="M33.8181 7.27533C35.4978 7.27533 36.8661 5.90696 36.8661 4.22731C36.8661 2.54763 35.4977 1.17922 33.8181 1.17922C32.1385 1.17922 30.77 2.54763 30.77 4.22731C30.77 5.9069 32.1384 7.27533 33.8181 7.27533ZM38.0454 4.22731C38.0454 6.55823 36.149 8.45455 33.8181 8.45455C31.4872 8.45455 29.5908 6.55815 29.5908 4.22731C29.5908 1.8964 31.4872 0 33.8181 0C36.149 0 38.0454 1.8964 38.0454 4.22731Z" fill="#C0C0C0"/>
<path fill-rule="evenodd" clip-rule="evenodd" d="M29.1362 22.5454H38.9999L37.7549 29.4155L37.7428 29.4529C37.7376 29.4693 37.7305 29.4949 37.7214 29.5279C37.6763 29.6922 37.5815 30.0371 37.4114 30.3065C37.2958 30.4896 37.1329 30.6701 36.9021 30.802C36.6712 30.934 36.4025 31 36.1 31H31.6428C31.3679 31 30.968 30.9194 30.6208 30.6607C30.2452 30.3809 29.9714 29.9196 29.9714 29.2706C29.9714 28.8562 29.8543 27.7792 29.6976 26.5502C29.5435 25.3416 29.3584 24.0392 29.235 23.2095L29.1362 22.5454ZM30.4335 23.6983C30.5469 24.4838 30.6836 25.4685 30.8023 26.3995C30.9551 27.598 31.0857 28.7627 31.0857 29.2706C31.0857 29.5439 31.1832 29.6591 31.2719 29.7251C31.389 29.8123 31.5463 29.8471 31.6428 29.8471H36.1C36.2432 29.8471 36.3211 29.817 36.3633 29.7928C36.4058 29.7686 36.4425 29.7329 36.4786 29.6759C36.5172 29.6146 36.5511 29.5348 36.5847 29.4306C36.6014 29.379 36.6162 29.3269 36.6326 29.269C36.6338 29.2646 36.6351 29.26 36.6364 29.2554C36.6474 29.2165 36.6599 29.172 36.6732 29.1283L37.6572 23.6983H30.4335Z" fill="#C0C0C0"/>
<path fill-rule="evenodd" clip-rule="evenodd" d="M24.8477 25.3958C25.3807 25.2914 25.8582 25.4598 26.1473 25.6502L26.1946 25.6814L27.3438 26.8172C27.8762 27.1832 28.1573 27.6328 28.1802 28.1175C28.2022 28.5857 27.9754 28.9595 27.7642 29.1682L26.6171 30.302C26.2585 30.6564 25.8777 30.8858 25.4742 30.9575C25.0581 31.0314 24.6886 30.9251 24.3922 30.7378C23.9915 30.4846 23.7112 30.0788 23.5327 29.7122H17.0886C16.8612 30.3424 16.4637 30.7406 15.9567 30.9104C15.3893 31.1006 14.8244 30.9545 14.4836 30.7861L14.4004 30.745L13.1874 29.5462C12.7493 29.1132 12.628 28.6145 12.7018 28.1661C12.7699 27.7529 12.995 27.4229 13.1874 27.2328L14.3345 26.099C14.6194 25.8175 14.9286 25.6294 15.2604 25.5532C15.5978 25.4757 15.9111 25.5252 16.1766 25.6413C16.5254 25.7938 16.7907 26.0583 16.9733 26.3109L23.5849 26.3109C23.9314 25.7837 24.3713 25.4891 24.8477 25.3958ZM25.0707 26.5079C24.9271 26.5361 24.6749 26.6477 24.4303 27.1313L24.2717 27.4447L16.2975 27.4447L16.139 27.1313C16.0428 26.9411 15.8744 26.7489 15.7126 26.6781C15.6467 26.6494 15.5872 26.6421 15.5199 26.6576C15.447 26.6743 15.3197 26.7287 15.1457 26.9007L13.9986 28.0345C13.936 28.0963 13.8552 28.2198 13.8341 28.3483C13.8246 28.4056 13.8273 28.4609 13.8454 28.517C13.8634 28.5726 13.9035 28.6505 13.9985 28.7445C13.9985 28.7445 13.9985 28.7445 13.9985 28.7445L15.0711 29.8045C15.2311 29.8655 15.4296 29.8899 15.5884 29.8367C15.7205 29.7924 15.9653 29.6486 16.0896 29.0341L16.1818 28.5784H24.3307L24.4614 28.966C24.5725 29.2956 24.7843 29.6399 25.0101 29.7826C25.1024 29.8409 25.1822 29.8574 25.2712 29.8416C25.3727 29.8236 25.5527 29.7506 25.8059 29.5003L26.9531 28.3665C26.9968 28.3233 27.0377 28.2437 27.0343 28.1702C27.0323 28.1279 27.0115 27.9602 26.6581 27.7274L26.6109 27.6962L25.472 26.5706C25.3741 26.5189 25.2231 26.4781 25.0707 26.5079Z" fill="#C0C0C0"/>
</svg>
