<svg width="20" height="20" viewBox="0 0 20 20" fill="none" xmlns="http://www.w3.org/2000/svg">
<path d="M8.36522 19.0957C4.00014 19.0957 0.428711 15.5242 0.428711 11.1592C0.428711 6.79408 4.00014 3.22266 8.36522 3.22266C12.7303 3.22266 16.3017 6.79408 16.3017 11.1592C16.3017 15.5242 12.7303 19.0957 8.36522 19.0957ZM8.36522 4.01631C4.39696 4.01631 1.22236 7.19091 1.22236 11.1592C1.22236 15.1274 4.39696 18.302 8.36522 18.302C12.3335 18.302 15.5081 15.1274 15.5081 11.1592C15.5081 7.19091 12.3335 4.01631 8.36522 4.01631Z" fill="#4B9B7A"/>
<path d="M8.36527 16.3175C5.50813 16.3175 3.20654 14.0159 3.20654 11.1587C3.20654 8.30159 5.50813 6 8.36527 6C11.2224 6 13.524 8.30159 13.524 11.1587C13.524 14.0159 11.2224 16.3175 8.36527 16.3175ZM8.36527 6.79365C5.98432 6.79365 4.00019 8.77778 4.00019 11.1587C4.00019 13.5397 5.98432 15.5238 8.36527 15.5238C10.7462 15.5238 12.7304 13.5397 12.7304 11.1587C12.7304 8.77778 10.7462 6.79365 8.36527 6.79365Z" fill="#4B9B7A"/>
<path d="M8.36533 13.5397C7.01612 13.5397 5.98438 12.508 5.98438 11.1588C5.98438 9.80958 7.01612 8.77783 8.36533 8.77783C9.71453 8.77783 10.7463 9.80958 10.7463 11.1588C10.7463 12.508 9.71453 13.5397 8.36533 13.5397ZM8.36533 9.57148C7.49231 9.57148 6.77803 10.2858 6.77803 11.1588C6.77803 12.0318 7.49231 12.7461 8.36533 12.7461C9.23834 12.7461 9.95263 12.0318 9.95263 11.1588C9.95263 10.2858 9.23834 9.57148 8.36533 9.57148Z" fill="#4B9B7A"/>
<path d="M8.36522 11.556C8.28585 11.556 8.12712 11.556 8.04776 11.4766C7.88903 11.3179 7.88903 11.0798 8.04776 10.921L14.0001 4.96866C14.1589 4.80993 14.397 4.80993 14.5557 4.96866C14.7144 5.12739 14.7144 5.36548 14.5557 5.52421L8.60331 11.4766C8.60331 11.556 8.44458 11.556 8.36522 11.556Z" fill="#4B9B7A"/>
<path d="M16.3019 5.60341H14.3177C14.0796 5.60341 13.9209 5.44468 13.9209 5.20658V3.22245C13.9209 3.14309 14.0003 2.98436 14.0003 2.90499L16.778 0.127217C16.9368 0.0478516 17.0955 0.0478516 17.2542 0.0478516C17.413 0.127217 17.4923 0.285947 17.4923 0.444677V2.03198H19.0796C19.2384 2.03198 19.3971 2.11134 19.4765 2.27007C19.4765 2.4288 19.4765 2.58753 19.3971 2.74626L16.6193 5.52404C16.5399 5.52404 16.3812 5.60341 16.3019 5.60341ZM14.7145 4.80976H16.1431L18.1272 2.82563H17.0955C16.8574 2.82563 16.6987 2.6669 16.6987 2.4288V1.39706L14.7145 3.38118V4.80976Z" fill="#4B9B7A"/>
</svg>
