<svg width="24" height="30" viewBox="0 0 24 30" fill="none" xmlns="http://www.w3.org/2000/svg">
<path d="M9.32549 1.80669H14.2439V2.63428H16.0201V1.69084C16.0203 0.775237 15.2758 0.0302734 14.3606 0.0302734H9.20874C8.29359 0.0302734 7.54907 0.775237 7.54907 1.69084V2.63428H9.32549V1.80669Z" fill="#F90000"/>
<path d="M20.1222 9.67236H3.4474C2.9905 9.67236 2.63081 10.0621 2.66763 10.5177L4.06169 27.7556C4.13938 28.7179 4.94204 29.459 5.90636 29.459H17.663C18.6273 29.459 19.43 28.7179 19.5077 27.7554L20.9017 10.5177C20.9388 10.0621 20.5791 9.67236 20.1222 9.67236ZM7.48498 27.6204C7.46634 27.6215 7.44771 27.6222 7.42929 27.6222C6.96364 27.6222 6.57274 27.2596 6.54378 26.7886L5.67017 12.6372C5.64008 12.1475 6.01256 11.7261 6.50202 11.696C6.9899 11.6663 7.41313 12.0379 7.44321 12.5278L8.3166 26.6792C8.34692 27.1689 7.97443 27.5901 7.48498 27.6204ZM12.6829 26.734C12.6829 27.2244 12.2853 27.622 11.7947 27.622C11.3041 27.622 10.9065 27.2244 10.9065 26.734V12.5824C10.9065 12.0918 11.3041 11.6942 11.7947 11.6942C12.285 11.6942 12.6829 12.0918 12.6829 12.5824V26.734ZM17.8994 12.6347L17.0653 26.7861C17.0377 27.258 16.6461 27.622 16.1796 27.622C16.1621 27.622 16.1443 27.6215 16.1266 27.6206C15.6369 27.5917 15.2633 27.1714 15.2923 26.6817L16.1261 12.5301C16.1549 12.0404 16.5738 11.6668 17.0649 11.6958C17.5546 11.7245 17.9282 12.145 17.8994 12.6347Z" fill="#F90000"/>
<path d="M23.1935 6.93113L22.6102 5.18255C22.4564 4.72161 22.0249 4.41064 21.5388 4.41064H2.03029C1.54442 4.41064 1.11267 4.72161 0.959093 5.18255L0.375785 6.93113C0.2633 7.26836 0.409688 7.61233 0.682931 7.78386C0.794294 7.85369 0.926088 7.89567 1.0709 7.89567H22.4984C22.6432 7.89567 22.7752 7.85369 22.8863 7.78364C23.1596 7.6121 23.306 7.26813 23.1935 6.93113Z" fill="#F90000"/>
</svg>
