<svg width="66" height="66" viewBox="0 0 66 66" fill="none" xmlns="http://www.w3.org/2000/svg">
<g opacity="0.17">
<path d="M62.4229 18.0421C60.1591 13.5982 56.8529 9.65727 52.8615 6.6455C52.4352 6.32388 51.8289 6.40883 51.5075 6.83487C51.1858 7.26116 51.2707 7.86728 51.6968 8.1889C55.4553 11.025 58.5687 14.7357 60.6999 18.9197C62.9337 23.3051 64.0664 28.0424 64.0664 33C64.0664 41.298 60.8349 49.0994 54.9672 54.9672C49.0995 60.835 41.298 64.0664 33 64.0664C24.702 64.0664 16.9006 60.8349 11.0328 54.9672C5.16502 49.0995 1.93359 41.298 1.93359 33C1.93359 24.702 5.16514 16.9006 11.0328 11.0328C16.9005 5.16502 24.702 1.93359 33 1.93359C38.4895 1.93359 43.8847 3.38508 48.6024 6.13104C49.0639 6.39955 49.6556 6.24332 49.9244 5.78183C50.1929 5.32035 50.0366 4.72854 49.5752 4.4599C44.5624 1.54223 38.8308 0 33 0C24.1855 0 15.8985 3.43264 9.66552 9.66552C3.43264 15.8985 0 24.1855 0 33C0 41.8145 3.43264 50.1015 9.66552 56.3345C15.8985 62.5674 24.1855 66 33 66C41.8145 66 50.1015 62.5674 56.3345 56.3345C62.5674 50.1015 66 41.8145 66 33C66 27.7343 64.7965 22.7018 62.4229 18.0421Z" fill="black"/>
<path d="M8.86331 32.9999C8.86331 46.309 19.6911 57.1367 33.0001 57.1367C46.3092 57.1367 57.1368 46.309 57.1368 32.9999C57.1368 19.6909 46.309 8.86328 33 8.86328C19.6909 8.86328 8.86331 19.6909 8.86331 32.9999ZM28.8388 11.1897L36.0997 23.7645L12.8109 23.7648C15.7642 17.3344 21.7012 12.5486 28.8388 11.1897ZM37.2159 40.302H28.7842L24.5685 32.9999L28.7842 25.6979H37.2159L41.4316 32.9999L37.2159 40.302ZM16.1981 47.4991L19.1058 42.463C19.3728 42.0006 19.2144 41.4093 18.752 41.1423C18.2896 40.8752 17.6983 41.0338 17.4313 41.4962L14.9109 45.8613C12.3216 42.23 10.7969 37.7898 10.7969 32.9999C10.7969 30.443 11.2327 27.9863 12.0318 25.6983H26.5514L19.365 38.147C19.0981 38.6094 19.2565 39.2007 19.7189 39.4677C19.8711 39.5556 20.0374 39.5974 20.2014 39.5974C20.5355 39.5974 20.8605 39.424 21.0395 39.1138L23.4527 34.9343L34.8533 55.125C34.242 55.1758 33.6241 55.203 33.0001 55.203C26.2938 55.2031 20.2727 52.2143 16.1981 47.4991ZM36.9178 54.8569L29.8732 42.2354L53.189 42.2352C50.2023 48.7388 44.1639 53.5617 36.9178 54.8569ZM53.9683 40.3016H39.4486L51.0893 20.139C53.6785 23.7703 55.203 28.2103 55.203 33.0001C55.2032 35.5569 54.7672 38.0138 53.9683 40.3016ZM49.8021 18.5012L42.5477 31.0661L30.9023 10.8966C31.5931 10.8316 32.2925 10.7969 33.0001 10.7969C39.7065 10.7969 45.7275 13.7858 49.8021 18.5012Z" fill="black"/>
</g>
</svg>
