<svg width="33" height="40" viewBox="0 0 33 40" fill="none" xmlns="http://www.w3.org/2000/svg">
<path d="M16.0224 18.6439C18.6637 18.6439 20.9509 17.7253 22.8196 15.9128C24.6884 14.1006 25.6357 11.8833 25.6357 9.32166C25.6357 6.76092 24.6884 4.54331 22.8193 2.73053C20.9503 0.918642 18.6634 0 16.0224 0C13.3809 0 11.0943 0.918642 9.22556 2.73083C7.3568 4.54301 6.40918 6.76063 6.40918 9.32166C6.40918 11.8833 7.3568 14.1009 9.22586 15.9131C11.0949 17.725 13.3818 18.6439 16.0224 18.6439Z" fill="white"/>
<path d="M32.5478 29.9218C32.495 29.1532 32.3882 28.3148 32.2309 27.4294C32.0722 26.5374 31.8678 25.6942 31.6232 24.9235C31.3705 24.1269 31.0268 23.3402 30.6019 22.5864C30.1609 21.8039 29.643 21.1226 29.0618 20.5619C28.454 19.9754 27.7099 19.5038 26.8494 19.1599C25.9919 18.8177 25.0417 18.6443 24.0251 18.6443C23.6259 18.6443 23.2399 18.8096 22.4943 19.2992C22.0354 19.601 21.4986 19.9501 20.8995 20.3362C20.3872 20.6655 19.6933 20.9739 18.8361 21.2532C17.9998 21.5262 17.1506 21.6646 16.3125 21.6646C15.4744 21.6646 14.6256 21.5262 13.7884 21.2532C12.9321 20.9742 12.2381 20.6658 11.7264 20.3365C11.133 19.954 10.596 19.6049 10.1302 19.2989C9.38551 18.8093 8.99913 18.644 8.59993 18.644C7.58312 18.644 6.63314 18.8177 5.77595 19.1602C4.91608 19.5035 4.17167 19.9751 3.56331 20.5622C2.98241 21.1232 2.46416 21.8042 2.02378 22.5864C1.59921 23.3402 1.2555 24.1266 1.00249 24.9238C0.758133 25.6945 0.553756 26.5374 0.395029 27.4294C0.237793 28.3136 0.13098 29.1523 0.0781704 29.9227C0.0262557 30.6775 0 31.4608 0 32.252C0 34.311 0.648933 35.978 1.9286 37.2073C3.19245 38.4204 4.86476 39.0358 6.89838 39.0358H25.7285C27.7621 39.0358 29.4338 38.4207 30.698 37.2073C31.9779 35.9789 32.6269 34.3117 32.6269 32.2517C32.6266 31.4569 32.6 30.673 32.5478 29.9218Z" fill="white"/>
</svg>
