<svg width="15" height="37" viewBox="0 0 15 37" fill="none" xmlns="http://www.w3.org/2000/svg">
<path fill-rule="evenodd" clip-rule="evenodd" d="M12.082 11.2811H2.91802C2.11223 11.2811 1.45901 11.9235 1.45901 12.716V24.2841C1.45901 25.0765 2.11223 25.719 2.91802 25.719H12.082C12.8878 25.719 13.541 25.0765 13.541 24.2841V12.716C13.541 11.9235 12.8878 11.2811 12.082 11.2811ZM2.91802 9.84619C1.30644 9.84619 0 11.131 0 12.716V24.2841C0 25.869 1.30644 27.1539 2.91802 27.1539H12.082C13.6936 27.1539 15 25.869 15 24.2841V12.716C15 11.131 13.6936 9.84619 12.082 9.84619H2.91802Z" fill="#C0C0C0"/>
<path fill-rule="evenodd" clip-rule="evenodd" d="M5.67484 0.615234H9.27183L9.28852 0.616247C10.3943 0.683366 10.7759 1.67482 10.8275 2.1544L10.8329 2.2044L10.8312 2.25472C10.759 4.46625 11.6886 6.81733 12.1624 7.70243L12.6922 8.69216H2.30762L2.96155 7.66012C3.42004 6.93653 3.73662 5.89732 3.93798 4.84162C4.13719 3.79725 4.21137 2.80364 4.21897 2.22185L4.22015 2.13194L4.24337 2.04567C4.51088 1.05191 5.19867 0.655255 5.65179 0.617172L5.67484 0.615234ZM5.74224 1.93059C5.7117 1.94234 5.53107 2.01259 5.4209 2.34179C5.40566 3.00799 5.32165 4.03461 5.11654 5.10998C4.9747 5.85362 4.76945 6.65068 4.47367 7.3768H10.6663C10.1539 6.12012 9.57864 4.18985 9.62616 2.27647C9.61464 2.22714 9.58634 2.14767 9.53342 2.07918C9.48314 2.01412 9.40173 1.94417 9.23596 1.93059H5.74224Z" fill="#C0C0C0"/>
<path fill-rule="evenodd" clip-rule="evenodd" d="M10.1048 36.3843H6.10817L6.08964 36.3833C4.86102 36.3161 4.43702 35.3247 4.37965 34.8451L4.37366 34.7951L4.37549 34.7448C4.45581 32.5333 3.4229 30.1822 2.89643 29.2971L2.30773 28.3073H13.8462L13.1196 29.3394C12.6102 30.063 12.2584 31.1022 12.0347 32.1579C11.8133 33.2023 11.7309 34.1959 11.7225 34.7777L11.7212 34.8676L11.6954 34.9538C11.3981 35.9476 10.6339 36.3442 10.1304 36.3823L10.1048 36.3843ZM10.0299 35.0689C10.0639 35.0572 10.2646 34.9869 10.387 34.6577C10.4039 33.9915 10.4973 32.9649 10.7252 31.8895C10.8828 31.1459 11.1108 30.3488 11.4395 29.6227H4.55878C5.12807 30.8794 5.76727 32.8097 5.71447 34.723C5.72727 34.7724 5.75873 34.8518 5.81753 34.9203C5.87339 34.9854 5.96384 35.0553 6.14804 35.0689H10.0299Z" fill="#C0C0C0"/>
</svg>
