<svg width="23" height="13" viewBox="0 0 23 13" fill="none" xmlns="http://www.w3.org/2000/svg">
<path d="M11.7818 0.0952148C5.77742 0.102013 0.911583 4.96785 0.904785 10.9722C0.904785 11.1725 1.06712 11.3348 1.26735 11.3348H2.71762V10.6097H1.63645C1.67388 9.5522 1.87746 8.50719 2.23976 7.51299L3.28069 8.03327L3.60519 7.38464L2.51132 6.83897C2.96924 5.81757 3.59236 4.87861 4.3557 4.05989L5.36183 5.06602L5.8745 4.55335L4.86946 3.54831C5.5752 2.89057 6.37076 2.33634 7.23231 1.90225L7.85448 2.8355L8.45779 2.43341L7.89835 1.59298C9.01665 1.12921 10.2093 0.870566 11.4192 0.829414V1.90805H12.1444V0.829414C13.3543 0.870566 14.547 1.12921 15.6653 1.59298L15.1058 2.43196L15.7091 2.83405L16.3313 1.9008C17.1929 2.33489 17.9884 2.88912 18.6942 3.54686L17.6891 4.5519L18.2018 5.06457L19.2079 4.05844C19.9714 4.87762 20.5945 5.81703 21.0523 6.83897L19.9588 7.38572L20.2833 8.03436L21.3242 7.51407C21.6863 8.50796 21.8898 9.55256 21.9272 10.6097H20.846V11.3348H22.2963C22.4965 11.3348 22.6588 11.1725 22.6588 10.9722C22.652 4.96785 17.7862 0.102013 11.7818 0.0952148Z" fill="#4B9B7A"/>
<path d="M17.0747 5.13183C16.9474 5.03838 16.7742 5.03806 16.6466 5.13106L11.6464 8.70489C10.6502 8.77717 9.90129 9.64335 9.97357 10.6395C10.0459 11.6357 10.912 12.3846 11.9082 12.3123C12.8039 12.2474 13.5162 11.5349 13.5811 10.6391H13.5807L17.1524 5.63861C17.2709 5.47726 17.2361 5.25034 17.0747 5.13183ZM11.7817 11.5917C11.1809 11.5917 10.6939 11.1047 10.6939 10.5039C10.6939 9.90322 11.1809 9.41624 11.7817 9.41624C12.3824 9.41624 12.8694 9.90322 12.8694 10.5039C12.8694 11.1047 12.3824 11.5917 11.7817 11.5917ZM13.382 9.67004C13.2106 9.34251 12.9432 9.0752 12.6156 8.90394L15.2986 6.98704L13.382 9.67004Z" fill="#4B9B7A"/>
</svg>
