<svg xmlns="http://www.w3.org/2000/svg" width="511.997" height="511.937" viewBox="0 0 511.997 511.937">
  <path id="add-group" d="M296.465,336.1a189.873,189.873,0,0,0-39.891-21.289,101.789,101.789,0,0,0,33.109-67.148,150.528,150.528,0,0,1,190.875-15.621,20,20,0,1,0,22.883-32.8,190.082,190.082,0,0,0-39.895-21.289,101.987,101.987,0,1,0-137.312-.227q-4.189,1.611-8.32,3.422a189.913,189.913,0,0,0-35.223,20.234A101.973,101.973,0,1,0,119.08,314.414C64.834,334.738,20.849,378.391,2.943,434.062a60,60,0,0,0,57.113,78.375h173.98a20,20,0,0,0,0-40H60.056a20.008,20.008,0,0,1-19.043-26.133C60.779,384.855,121.06,341.937,187.6,341.937A149.58,149.58,0,0,1,273.587,368.9a20,20,0,1,0,22.879-32.8ZM395.012,40.5a61.992,61.992,0,1,1-61.992,61.992A62.061,62.061,0,0,1,395.012,40.5ZM188.039,177.351a61.992,61.992,0,1,1-61.992,61.992,62.064,62.064,0,0,1,61.992-61.992ZM512,417.449a20,20,0,0,1-20,20H437.008v54.992a20,20,0,1,1-40,0V437.445H342.019a20,20,0,0,1,0-40h54.992V342.457a20,20,0,0,1,40,0v54.992H492a20,20,0,0,1,20,20Zm0,0" transform="translate(-0.003 -0.501)" fill="#fff"/>
</svg>
