<svg width="16" height="19" viewBox="0 0 16 19" fill="none" xmlns="http://www.w3.org/2000/svg">
<rect width="16" height="19" fill="url(#paint0_linear)"/>
<path d="M2.90914 0.76C2.90914 0.340264 2.58352 0 2.18186 0C1.7802 0 1.45459 0.340264 1.45459 0.76V18.24C1.45459 18.6597 1.7802 19 2.18186 19C2.58352 19 2.90914 18.6597 2.90914 18.24V0.76Z" fill="white"/>
<path d="M2.18182 9.87982C3.3868 9.87982 4.36364 8.85903 4.36364 7.59982C4.36364 6.34062 3.3868 5.31982 2.18182 5.31982C0.976833 5.31982 0 6.34062 0 7.59982C0 8.85903 0.976833 9.87982 2.18182 9.87982Z" fill="white"/>
<path d="M8.00018 16.7202C9.20516 16.7202 10.182 15.6994 10.182 14.4402C10.182 13.1809 9.20516 12.1602 8.00018 12.1602C6.79519 12.1602 5.81836 13.1809 5.81836 14.4402C5.81836 15.6994 6.79519 16.7202 8.00018 16.7202Z" fill="white"/>
<path d="M8.72749 0.76C8.72749 0.340264 8.40188 0 8.00022 0C7.59856 0 7.27295 0.340264 7.27295 0.76V18.24C7.27295 18.6597 7.59856 19 8.00022 19C8.40188 19 8.72749 18.6597 8.72749 18.24V0.76Z" fill="white"/>
<path d="M13.818 7.60004C15.023 7.60004 15.9999 6.57925 15.9999 5.32004C15.9999 4.06083 15.023 3.04004 13.818 3.04004C12.6131 3.04004 11.6362 4.06083 11.6362 5.32004C11.6362 6.57925 12.6131 7.60004 13.818 7.60004Z" fill="white"/>
<path d="M14.5454 0.76C14.5454 0.340264 14.2198 0 13.8181 0C13.4164 0 13.0908 0.340264 13.0908 0.76V18.24C13.0908 18.6597 13.4164 19 13.8181 19C14.2198 19 14.5454 18.6597 14.5454 18.24V0.76Z" fill="white"/>
<defs>
<linearGradient id="paint0_linear" x1="8" y1="0" x2="8.27514" y2="24.5601" gradientUnits="userSpaceOnUse">
<stop stop-color="#4B9B7A"/>
<stop offset="1" stop-color="#227553"/>
</linearGradient>
</defs>
</svg>
