<svg width="43" height="22" viewBox="0 0 43 22" fill="none" xmlns="http://www.w3.org/2000/svg">
<path d="M1.14441e-05 17.3971V4.57751C1.14441e-05 2.05374 2.05317 0 4.57753 0L34.3911 0C36.9154 0 38.9686 2.05374 38.9686 4.57751V17.3971C38.9686 19.9214 36.9148 21.9746 34.3911 21.9746L4.57753 21.9746C2.05317 21.9752 1.14441e-05 19.9214 1.14441e-05 17.3971ZM37.7966 4.57751C37.7966 2.69968 36.2689 1.17192 34.3911 1.17192L4.57753 1.17192C2.69969 1.17192 1.17193 2.69968 1.17193 4.57751V17.3971C1.17193 19.2749 2.69969 20.8027 4.57753 20.8027L34.3911 20.8027C36.2689 20.8027 37.7966 19.2749 37.7966 17.3971V4.57751Z" fill="#484D4D"/>
<path d="M38.1265 13.3502V8.62502C38.1265 8.0777 38.5741 7.63016 39.1214 7.63016H40.1163C41.279 7.63016 42.23 8.58119 42.23 9.74388V12.2307C42.23 13.3934 41.279 14.3445 40.1163 14.3445H39.1214C38.5741 14.345 38.1265 13.8969 38.1265 13.3502Z" fill="#484D4D"/>
</svg>
