<svg width="22" height="22" viewBox="0 0 22 22" fill="none" xmlns="http://www.w3.org/2000/svg">
<path d="M11.0001 0C4.92496 0 0 4.94555 0 11.0461C0 16.5175 3.96574 21.0488 9.16547 21.9262V13.3506H6.51194V10.2645H9.16547V7.98902C9.16547 5.34876 10.7713 3.90998 13.1172 3.90998C14.2407 3.90998 15.2062 3.99405 15.4865 4.03107V6.79084L13.8595 6.79163C12.584 6.79163 12.3381 7.40014 12.3381 8.2934V10.263H15.3815L14.9846 13.349H12.3381V22C17.7806 21.3348 22 16.6881 22 11.0429C22 4.94555 17.075 0 11.0001 0Z" fill="white"/>
</svg>
