<svg width="23" height="23" viewBox="0 0 23 23" fill="none" xmlns="http://www.w3.org/2000/svg">
<path d="M13.8722 11.1864C13.8722 12.369 12.9135 13.3276 11.731 13.3276C10.5484 13.3276 9.58984 12.369 9.58984 11.1864C9.58984 10.0039 10.5484 9.04529 11.731 9.04529C12.9135 9.04529 13.8722 10.0039 13.8722 11.1864Z" fill="white"/>
<path d="M16.7345 7.3979C16.6316 7.11899 16.4674 6.86653 16.254 6.65931C16.0468 6.44595 15.7945 6.28174 15.5154 6.17882C15.2891 6.09091 14.9491 5.98628 14.3228 5.95777C13.6453 5.92688 13.4422 5.92022 11.7271 5.92022C10.0118 5.92022 9.80871 5.92671 9.13141 5.9576C8.50514 5.98628 8.16495 6.09091 7.93878 6.17882C7.6597 6.28174 7.40725 6.44595 7.2002 6.65931C6.98684 6.86653 6.82263 7.11882 6.71954 7.3979C6.63163 7.62423 6.527 7.96442 6.49849 8.59069C6.46759 9.26799 6.46094 9.47112 6.46094 11.1864C6.46094 12.9015 6.46759 13.1046 6.49849 13.7821C6.527 14.4084 6.63163 14.7484 6.71954 14.9747C6.82263 15.2538 6.98667 15.5061 7.20003 15.7133C7.40725 15.9267 7.65953 16.0909 7.93861 16.1938C8.16495 16.2819 8.50514 16.3865 9.13141 16.415C9.80871 16.4459 10.0117 16.4524 11.7269 16.4524C13.4424 16.4524 13.6455 16.4459 14.3226 16.415C14.9489 16.3865 15.2891 16.2819 15.5154 16.1938C16.0757 15.9777 16.5184 15.5349 16.7345 14.9747C16.8224 14.7484 16.9271 14.4084 16.9557 13.7821C16.9866 13.1046 16.9931 12.9015 16.9931 11.1864C16.9931 9.47112 16.9866 9.26799 16.9557 8.59069C16.9272 7.96442 16.8226 7.62423 16.7345 7.3979ZM11.7271 14.4847C9.90532 14.4847 8.4285 13.008 8.4285 11.1862C8.4285 9.36443 9.90532 7.88778 11.7271 7.88778C13.5487 7.88778 15.0256 9.36443 15.0256 11.1862C15.0256 13.008 13.5487 14.4847 11.7271 14.4847ZM15.156 8.52822C14.7303 8.52822 14.3851 8.18308 14.3851 7.75737C14.3851 7.33167 14.7303 6.98653 15.156 6.98653C15.5817 6.98653 15.9268 7.33167 15.9268 7.75737C15.9266 8.18308 15.5817 8.52822 15.156 8.52822Z" fill="white"/>
<path d="M11.7294 0C5.55225 0 0.542969 5.00928 0.542969 11.1864C0.542969 17.3636 5.55225 22.3729 11.7294 22.3729C17.9066 22.3729 22.9158 17.3636 22.9158 11.1864C22.9158 5.00928 17.9066 0 11.7294 0ZM18.1141 13.8347C18.0831 14.5185 17.9743 14.9854 17.8156 15.394C17.4819 16.2568 16.7998 16.9389 15.937 17.2726C15.5285 17.4314 15.0615 17.5399 14.3779 17.5712C13.6929 17.6024 13.474 17.6099 11.7296 17.6099C9.98494 17.6099 9.76629 17.6024 9.08113 17.5712C8.39751 17.5399 7.9305 17.4314 7.52203 17.2726C7.09326 17.1113 6.7051 16.8585 6.3842 16.5316C6.0575 16.2109 5.80471 15.8226 5.6434 15.394C5.48466 14.9855 5.37593 14.5185 5.34486 13.8349C5.31328 13.1497 5.30595 12.9309 5.30595 11.1864C5.30595 9.44197 5.31328 9.22315 5.34469 8.53816C5.37576 7.85437 5.48432 7.38753 5.64306 6.97889C5.80436 6.55029 6.05733 6.16196 6.3842 5.84124C6.70493 5.51436 7.09326 5.26157 7.52186 5.10026C7.9305 4.94152 8.39734 4.83296 9.08113 4.80172C9.76612 4.77049 9.98494 4.76298 11.7294 4.76298C13.4739 4.76298 13.6927 4.77049 14.3777 4.80189C15.0615 4.83296 15.5283 4.94152 15.937 5.10009C16.3656 5.2614 16.7539 5.51436 17.0748 5.84124C17.4015 6.16214 17.6545 6.55029 17.8156 6.97889C17.9745 7.38753 18.0831 7.85437 18.1143 8.53816C18.1455 9.22315 18.1529 9.44197 18.1529 11.1864C18.1529 12.9309 18.1455 13.1497 18.1141 13.8347Z" fill="white"/>
</svg>
