<svg width="15" height="21" viewBox="0 0 15 21" fill="none" xmlns="http://www.w3.org/2000/svg">
<path d="M7.5 0.5C8.82812 0.5 10.0781 0.851562 11.25 1.51562C12.3828 2.21875 13.2812 3.11719 13.9844 4.25C14.6484 5.42188 15 6.67188 15 8C15 8.85938 14.8828 9.60156 14.6875 10.2266C14.4531 10.8516 14.0625 11.6328 13.4766 12.5703C13.0469 13.2344 12.1875 14.4844 10.8984 16.3594L8.28125 20.1094C8.08594 20.3828 7.8125 20.5 7.5 20.5C7.14844 20.5 6.875 20.3828 6.71875 20.1094L4.10156 16.3594C2.77344 14.4844 1.91406 13.2344 1.52344 12.5703C0.898438 11.6328 0.507812 10.8516 0.3125 10.2266C0.078125 9.60156 0 8.85938 0 8C0 6.67188 0.3125 5.42188 1.01562 4.25C1.67969 3.11719 2.57812 2.21875 3.75 1.51562C4.88281 0.851562 6.13281 0.5 7.5 0.5ZM7.5 19.0156L9.92188 15.5391C11.1719 13.7422 11.9922 12.5703 12.3828 11.9844C12.9297 11.125 13.2812 10.4219 13.4766 9.875C13.6328 9.32812 13.75 8.70312 13.75 8C13.75 7.17969 13.5938 6.39844 13.2812 5.61719C12.9688 4.875 12.5 4.21094 11.9141 3.58594C11.2891 3 10.625 2.53125 9.88281 2.21875C9.10156 1.90625 8.32031 1.75 7.5 1.75C6.64062 1.75 5.85938 1.90625 5.11719 2.21875C4.33594 2.53125 3.67188 3 3.08594 3.58594C2.46094 4.21094 2.03125 4.875 1.71875 5.61719C1.40625 6.39844 1.25 7.17969 1.25 8C1.25 8.70312 1.32812 9.32812 1.52344 9.875C1.67969 10.4219 2.07031 11.125 2.61719 11.9844C3.00781 12.5703 3.82812 13.7422 5.07812 15.5391C6.05469 16.9453 6.875 18.1172 7.5 19.0156Z" fill="white"/>
</svg>
