<svg width="39" height="39" viewBox="0 0 39 39" fill="none" xmlns="http://www.w3.org/2000/svg">
<circle cx="19.5" cy="19.5" r="18.5" stroke="#FF5A5F" stroke-width="2"/>
<path d="M20.0003 10C19.5587 10 19.2003 10.3733 19.2003 10.8333V27.4579L13.3795 21.0921C13.0751 20.7592 12.5691 20.7454 12.2483 21.0633C11.9283 21.3808 11.9159 21.9079 12.2207 22.2413L18.8687 29.5117C19.1711 29.8267 19.5727 30 20.0003 30C20.4275 30 20.8295 29.8267 21.1451 29.4971L27.7794 22.2413C28.0842 21.9079 28.0714 21.3808 27.7518 21.0633C27.4322 20.7454 26.9258 20.7587 26.621 21.0921L20.8003 27.4846V10.8333C20.8003 10.3733 20.4419 10 20.0003 10Z" fill="#FF5A5F"/>
</svg>
